

<svg version="1.1" id="Layer_1" xmlns="http://www.w3.org/2000/svg" xmlns:xlink="http://www.w3.org/1999/xlink" x="0px" y="0px"
	 width="30px" height="30px" viewBox="0 0 30 30" style="enable-background:new 0 0 30 30;" xml:space="preserve">
<style type="text/css">
	.st0{clip-path:url(#SVGID_2_);}
	.st1{clip-path:url(#SVGID_4_);}
	.st2{fill:none;stroke:#000000;stroke-width:0.5;stroke-miterlimit:10;}
	.st3{clip-path:url(#SVGID_6_);}
	.st4{clip-path:url(#SVGID_8_);fill:#FFFFFF;}
	.st5{clip-path:url(#SVGID_10_);}
	.st6{clip-path:url(#SVGID_12_);fill:#FFFFFF;}
	.st7{clip-path:url(#SVGID_14_);}
	.st8{clip-path:url(#SVGID_16_);fill:#FFFFFF;}
	.st9{clip-path:url(#SVGID_18_);}
	.st10{clip-path:url(#SVGID_20_);fill:#FFFFFF;}
</style>
<g>
	<defs>
		<path id="SVGID_1_" d="M28.8,1.9c0,0.4,0,0.8,0,1.2C28.7,5,28.6,7,28.6,8.9c-0.1,1.8-0.1,3.5-0.2,5.3c-0.1,1.9-0.1,3.8-0.2,5.8
			c-0.1,1.7-0.1,3.3-0.2,5c0,0.5-0.1,1-0.1,1.5c0,0.3-0.2,0.3-0.4,0.2c-0.7-0.2-1.4-0.5-2-0.7c-1.6-0.5-3.3-1.1-4.9-1.6
			c-0.2-0.1-0.3,0-0.5,0.2c-0.6,0.9-1.3,1.8-1.9,2.7c-0.6,0.8-1.1,1.6-1.7,2.4c-0.2,0.3-0.5,0.3-0.6-0.1c0,0,0-0.1-0.1-0.1
			c-0.8-1.5-1.6-3.1-2.5-4.6c-0.5-0.9-1-1.9-1.5-2.8c-0.1-0.1-0.2-0.2-0.3-0.3c-1.9-0.5-3.9-1-5.8-1.5c-1.4-0.4-2.7-0.8-4.1-1.1
			c-0.1,0-0.3-0.2-0.3-0.3s0.1-0.3,0.2-0.4c1.7-1.2,3.5-2.4,5.2-3.6c0.8-0.5,1.5-1,2.2-1.5c1.1-0.8,2.2-1.5,3.4-2.3
			c1-0.7,2-1.4,3.1-2.1c1.1-0.8,2.2-1.5,3.3-2.3c1-0.7,2.1-1.4,3.1-2.1c1.1-0.7,2.1-1.5,3.2-2.2c1.1-0.7,2.2-1.5,3.2-2.2
			c0.1-0.1,0.3-0.1,0.5,0c0.1,0,0.1,0.2,0.1,0.4C28.9,1,28.8,1.4,28.8,1.9L28.8,1.9z M28.2,1.8C28.2,1.8,28.2,1.7,28.2,1.8
			c-0.5,0.8-1,1.6-1.4,2.4c-0.7,1.2-1.3,2.3-2,3.5c-0.7,1.2-1.3,2.4-2,3.7c-0.6,1.1-1.2,2.2-1.8,3.3c-1,1.8-2,3.5-2.9,5.3
			c-0.3,0.6-0.6,1.1-0.9,1.7c-0.2,0.3-0.3,0.6-0.5,0.9c3.6,1.2,7.1,2.4,10.7,3.5c0-0.1,0-0.1,0-0.1c0.1-1.8,0.1-3.5,0.2-5.3
			c0.1-1.8,0.1-3.7,0.2-5.5c0.1-2,0.1-3.9,0.2-5.9c0-1,0-1.9,0.1-2.9c0-0.7,0-1.3,0.1-2C28.1,3.4,28.2,2.6,28.2,1.8z M11.8,21.2
			c0,0,0.1-0.1,0.1-0.1c0.8-1,1.6-2,2.4-3c0.8-1,1.6-2,2.4-3c0.8-1,1.6-2.1,2.5-3.1c0.8-1,1.5-2,2.3-2.9C22.2,8,23,7,23.8,6
			c0.6-0.7,1.1-1.4,1.7-2.1c0.2-0.3,0.4-0.5,0.6-0.7c0.3-0.4,0.6-0.8,0.9-1.2c-0.5,0.3-1,0.6-1.5,0.9c-1.1,0.7-2.2,1.5-3.3,2.2
			c-1,0.7-2.1,1.4-3.1,2.1c-1,0.7-2.1,1.4-3.2,2.1c-1.1,0.7-2.2,1.5-3.3,2.2c-1.1,0.7-2.1,1.4-3.2,2.1c-1.1,0.7-2.2,1.5-3.3,2.2
			c-0.8,0.6-1.6,1.1-2.4,1.7c-0.2,0.1-0.3,0.3-0.5,0.4c-0.3,0.2-0.7,0.4-1,0.7c0,0,0,0.1,0,0.1C5.4,19.5,8.6,20.4,11.8,21.2z
			 M15.7,28.2C15.7,28.2,15.7,28.2,15.7,28.2c0.1-0.5,0.1-1,0.1-1.4c0-1.3,0-2.6,0.1-4c0-0.2,0.1-0.4,0.1-0.5
			c0.5-0.8,0.9-1.6,1.4-2.5c0.5-0.8,0.9-1.7,1.4-2.5c0.7-1.2,1.4-2.5,2-3.7c0.6-1.1,1.2-2.2,1.8-3.3c0.7-1.2,1.3-2.4,2-3.5
			c0.5-0.9,1-1.9,1.5-2.8c0-0.1,0.1-0.1,0.1-0.2c-0.1,0-0.1,0.1-0.2,0.1c-0.7,0.9-1.4,1.8-2.1,2.7c-0.8,1.1-1.7,2.1-2.5,3.2
			c-0.8,1-1.5,1.9-2.3,2.9c-0.8,1-1.6,2-2.4,3c-0.8,1.1-1.7,2.1-2.5,3.2c-0.6,0.7-1.1,1.5-1.7,2.2c-0.3,0.3-0.3,0.5-0.1,1
			c0.4,0.7,0.7,1.4,1.1,2.1c0.5,1,1.1,2,1.6,3C15.4,27.5,15.5,27.9,15.7,28.2z M16.5,23c0,1.8-0.1,3.6-0.1,5.4c0,0,0,0,0.1,0
			c1.1-1.5,2.1-2.9,3.2-4.4C18.6,23.7,17.6,23.4,16.5,23z"/>
	</defs>
	<clipPath id="SVGID_2_">
		<use xlink:href="#SVGID_1_"  style="overflow:visible;"/>
	</clipPath>
	<g class="st0">
		<defs>
			<rect id="SVGID_3_" x="-620" y="-214" width="1280" height="850"/>
		</defs>
		<clipPath id="SVGID_4_">
			<use xlink:href="#SVGID_3_"  style="overflow:visible;"/>
		</clipPath>
		<rect x="-3.8" y="-4.9" class="st1" width="37.7" height="39.8"/>
	</g>
</g>
<g>
	<path class="st2" d="M28.8,1.9c0,0.4,0,0.8,0,1.2C28.7,5,28.6,7,28.6,8.9c-0.1,1.8-0.1,3.5-0.2,5.3c-0.1,1.9-0.1,3.8-0.2,5.8
		c-0.1,1.7-0.1,3.3-0.2,5c0,0.5-0.1,1-0.1,1.5c0,0.3-0.2,0.3-0.4,0.2c-0.7-0.2-1.4-0.5-2-0.7c-1.6-0.5-3.3-1.1-4.9-1.6
		c-0.2-0.1-0.3,0-0.5,0.2c-0.6,0.9-1.3,1.8-1.9,2.7c-0.6,0.8-1.1,1.6-1.7,2.4c-0.2,0.3-0.5,0.3-0.6-0.1c0,0,0-0.1-0.1-0.1
		c-0.8-1.5-1.6-3.1-2.5-4.6c-0.5-0.9-1-1.9-1.5-2.8c-0.1-0.1-0.2-0.2-0.3-0.3c-1.9-0.5-3.9-1-5.8-1.5c-1.4-0.4-2.7-0.8-4.1-1.1
		c-0.1,0-0.3-0.2-0.3-0.3c0-0.1,0.1-0.3,0.2-0.4c1.7-1.2,3.5-2.4,5.2-3.6c0.8-0.5,1.5-1,2.2-1.5c1.1-0.8,2.2-1.5,3.4-2.3
		c1-0.7,2-1.4,3.1-2.1c1.1-0.8,2.2-1.5,3.3-2.3c1-0.7,2.1-1.4,3.1-2.1c1.1-0.7,2.1-1.5,3.2-2.2c1.1-0.7,2.2-1.5,3.2-2.2
		c0.1-0.1,0.3-0.1,0.5,0c0.1,0,0.1,0.2,0.1,0.4C28.9,1,28.8,1.4,28.8,1.9L28.8,1.9z M28.2,1.8C28.2,1.8,28.2,1.7,28.2,1.8
		c-0.5,0.8-1,1.6-1.4,2.4c-0.7,1.2-1.3,2.3-2,3.5c-0.7,1.2-1.3,2.4-2,3.7c-0.6,1.1-1.2,2.2-1.8,3.3c-1,1.8-2,3.5-2.9,5.3
		c-0.3,0.6-0.6,1.1-0.9,1.7c-0.2,0.3-0.3,0.6-0.5,0.9c3.6,1.2,7.1,2.4,10.7,3.5c0-0.1,0-0.1,0-0.1c0.1-1.8,0.1-3.5,0.2-5.3
		c0.1-1.8,0.1-3.7,0.2-5.5c0.1-2,0.1-3.9,0.2-5.9c0-1,0-1.9,0.1-2.9c0-0.7,0-1.3,0.1-2C28.1,3.4,28.2,2.6,28.2,1.8z M11.8,21.2
		c0,0,0.1-0.1,0.1-0.1c0.8-1,1.6-2,2.4-3c0.8-1,1.6-2,2.4-3c0.8-1,1.6-2.1,2.5-3.1c0.8-1,1.5-2,2.3-2.9C22.2,8,23,7,23.8,6
		c0.6-0.7,1.1-1.4,1.7-2.1c0.2-0.3,0.4-0.5,0.6-0.7c0.3-0.4,0.6-0.8,0.9-1.2c-0.5,0.3-1,0.6-1.5,0.9c-1.1,0.7-2.2,1.5-3.3,2.2
		c-1,0.7-2.1,1.4-3.1,2.1c-1,0.7-2.1,1.4-3.2,2.1c-1.1,0.7-2.2,1.5-3.3,2.2c-1.1,0.7-2.1,1.4-3.2,2.1c-1.1,0.7-2.2,1.5-3.3,2.2
		c-0.8,0.6-1.6,1.1-2.4,1.7c-0.2,0.1-0.3,0.3-0.5,0.4c-0.3,0.2-0.7,0.4-1,0.7c0,0,0,0.1,0,0.1C5.4,19.5,8.6,20.4,11.8,21.2z
		 M15.7,28.2C15.7,28.2,15.7,28.2,15.7,28.2c0.1-0.5,0.1-1,0.1-1.4c0-1.3,0-2.6,0.1-4c0-0.2,0.1-0.4,0.1-0.5
		c0.5-0.8,0.9-1.6,1.4-2.5c0.5-0.8,0.9-1.7,1.4-2.5c0.7-1.2,1.4-2.5,2-3.7c0.6-1.1,1.2-2.2,1.8-3.3c0.7-1.2,1.3-2.4,2-3.5
		c0.5-0.9,1-1.9,1.5-2.8c0-0.1,0.1-0.1,0.1-0.2c-0.1,0-0.1,0.1-0.2,0.1c-0.7,0.9-1.4,1.8-2.1,2.7c-0.8,1.1-1.7,2.1-2.5,3.2
		c-0.8,1-1.5,1.9-2.3,2.9c-0.8,1-1.6,2-2.4,3c-0.8,1.1-1.7,2.1-2.5,3.2c-0.6,0.7-1.1,1.5-1.7,2.2c-0.3,0.3-0.3,0.5-0.1,1
		c0.4,0.7,0.7,1.4,1.1,2.1c0.5,1,1.1,2,1.6,3C15.4,27.5,15.5,27.9,15.7,28.2z M16.5,23c0,1.8-0.1,3.6-0.1,5.4c0,0,0,0,0.1,0
		c1.1-1.5,2.1-2.9,3.2-4.4C18.6,23.7,17.6,23.4,16.5,23z"/>
</g>
<g>
	<defs>
		<path id="SVGID_5_" d="M28.2,1.8c0,0.8-0.1,1.7-0.1,2.5c0,0.7,0,1.3-0.1,2c0,1,0,1.9-0.1,2.9c-0.1,2-0.1,3.9-0.2,5.9
			c-0.1,1.8-0.1,3.7-0.2,5.5c-0.1,1.8-0.1,3.5-0.2,5.3c0,0,0,0.1,0,0.1c-3.6-1.2-7.1-2.4-10.7-3.5c0.2-0.3,0.3-0.6,0.5-0.9
			c0.3-0.6,0.6-1.1,0.9-1.7c1-1.8,2-3.5,2.9-5.3c0.6-1.1,1.2-2.2,1.8-3.3c0.7-1.2,1.3-2.4,2-3.7c0.6-1.2,1.3-2.3,2-3.5
			C27.3,3.3,27.7,2.5,28.2,1.8C28.2,1.7,28.2,1.8,28.2,1.8"/>
	</defs>
	<clipPath id="SVGID_6_">
		<use xlink:href="#SVGID_5_"  style="overflow:visible;"/>
	</clipPath>
	<g class="st3">
		<defs>
			<rect id="SVGID_7_" x="-620" y="-214" width="1280" height="850"/>
		</defs>
		<clipPath id="SVGID_8_">
			<use xlink:href="#SVGID_7_"  style="overflow:visible;"/>
		</clipPath>
		<rect x="11.7" y="-3.3" class="st4" width="21.6" height="34.2"/>
	</g>
</g>
<g>
	<path class="st2" d="M28.2,1.8c0,0.8-0.1,1.7-0.1,2.5c0,0.7,0,1.3-0.1,2c0,1,0,1.9-0.1,2.9c-0.1,2-0.1,3.9-0.2,5.9
		c-0.1,1.8-0.1,3.7-0.2,5.5c-0.1,1.8-0.1,3.5-0.2,5.3c0,0,0,0.1,0,0.1c-3.6-1.2-7.1-2.4-10.7-3.5c0.2-0.3,0.3-0.6,0.5-0.9
		c0.3-0.6,0.6-1.1,0.9-1.7c1-1.8,2-3.5,2.9-5.3c0.6-1.1,1.2-2.2,1.8-3.3c0.7-1.2,1.3-2.4,2-3.7c0.6-1.2,1.3-2.3,2-3.5
		C27.3,3.3,27.7,2.5,28.2,1.8C28.2,1.7,28.2,1.8,28.2,1.8z"/>
</g>
<g>
	<defs>
		<path id="SVGID_9_" d="M11.8,21.2c-3.2-0.9-6.4-1.7-9.6-2.6c0,0,0-0.1,0-0.1c0.3-0.2,0.7-0.4,1-0.7c0.2-0.1,0.3-0.3,0.5-0.4
			c0.8-0.6,1.6-1.1,2.4-1.7c1.1-0.7,2.2-1.5,3.3-2.2c1.1-0.7,2.1-1.4,3.2-2.1c1.1-0.7,2.2-1.5,3.3-2.2C16.9,8.6,18,7.9,19,7.2
			c1-0.7,2.1-1.4,3.1-2.1c1.1-0.8,2.2-1.5,3.3-2.2c0.5-0.3,1-0.6,1.5-0.9c-0.3,0.4-0.6,0.8-0.9,1.2c-0.2,0.3-0.4,0.5-0.6,0.7
			c-0.6,0.7-1.1,1.4-1.7,2.1c-0.8,1-1.6,2-2.4,3c-0.8,1-1.5,2-2.3,2.9c-0.8,1-1.6,2.1-2.5,3.1c-0.8,1-1.6,2-2.4,3
			c-0.8,1-1.6,2-2.4,3C11.8,21.1,11.8,21.2,11.8,21.2"/>
	</defs>
	<clipPath id="SVGID_10_">
		<use xlink:href="#SVGID_9_"  style="overflow:visible;"/>
	</clipPath>
	<g class="st5">
		<defs>
			<rect id="SVGID_11_" x="-620" y="-214" width="1280" height="850"/>
		</defs>
		<clipPath id="SVGID_12_">
			<use xlink:href="#SVGID_11_"  style="overflow:visible;"/>
		</clipPath>
		<rect x="-2.8" y="-3.1" class="st6" width="34.8" height="29.4"/>
	</g>
</g>
<g>
	<path class="st2" d="M11.8,21.2c-3.2-0.9-6.4-1.7-9.6-2.6c0,0,0-0.1,0-0.1c0.3-0.2,0.7-0.4,1-0.7c0.2-0.1,0.3-0.3,0.5-0.4
		c0.8-0.6,1.6-1.1,2.4-1.7c1.1-0.7,2.2-1.5,3.3-2.2c1.1-0.7,2.1-1.4,3.2-2.1c1.1-0.7,2.2-1.5,3.3-2.2C16.9,8.6,18,7.9,19,7.2
		c1-0.7,2.1-1.4,3.1-2.1c1.1-0.8,2.2-1.5,3.3-2.2c0.5-0.3,1-0.6,1.5-0.9c-0.3,0.4-0.6,0.8-0.9,1.2c-0.2,0.3-0.4,0.5-0.6,0.7
		c-0.6,0.7-1.1,1.4-1.7,2.1c-0.8,1-1.6,2-2.4,3c-0.8,1-1.5,2-2.3,2.9c-0.8,1-1.6,2.1-2.5,3.1c-0.8,1-1.6,2-2.4,3c-0.8,1-1.6,2-2.4,3
		C11.8,21.1,11.8,21.2,11.8,21.2z"/>
</g>
<g>
	<defs>
		<path id="SVGID_13_" d="M15.7,28.2c-0.2-0.3-0.3-0.7-0.5-1c-0.5-1-1.1-2-1.6-3c-0.4-0.7-0.7-1.4-1.1-2.1c-0.3-0.4-0.2-0.6,0.1-1
			c0.6-0.7,1.1-1.5,1.7-2.2c0.8-1.1,1.7-2.1,2.5-3.2c0.8-1,1.6-2,2.4-3c0.8-1,1.5-1.9,2.3-2.9c0.8-1.1,1.7-2.1,2.5-3.2
			c0.7-0.9,1.4-1.8,2.1-2.7c0-0.1,0.1-0.1,0.2-0.1c0,0.1-0.1,0.1-0.1,0.2c-0.5,0.9-1,1.9-1.5,2.8c-0.7,1.2-1.3,2.4-2,3.5
			c-0.6,1.1-1.2,2.2-1.8,3.3c-0.7,1.2-1.4,2.5-2,3.7c-0.5,0.8-0.9,1.7-1.4,2.5c-0.5,0.8-0.9,1.6-1.4,2.5c-0.1,0.2-0.1,0.3-0.1,0.5
			c0,1.3,0,2.6-0.1,4C15.8,27.3,15.8,27.7,15.7,28.2C15.7,28.2,15.7,28.2,15.7,28.2"/>
	</defs>
	<clipPath id="SVGID_14_">
		<use xlink:href="#SVGID_13_"  style="overflow:visible;"/>
	</clipPath>
	<g class="st7">
		<defs>
			<rect id="SVGID_15_" x="-620" y="-214" width="1280" height="850"/>
		</defs>
		<clipPath id="SVGID_16_">
			<use xlink:href="#SVGID_15_"  style="overflow:visible;"/>
		</clipPath>
		<rect x="7.3" y="-1.2" class="st8" width="23.9" height="34.4"/>
	</g>
</g>
<g>
	<path class="st2" d="M15.7,28.2c-0.2-0.3-0.3-0.7-0.5-1c-0.5-1-1.1-2-1.6-3c-0.4-0.7-0.7-1.4-1.1-2.1c-0.3-0.4-0.2-0.6,0.1-1
		c0.6-0.7,1.1-1.5,1.7-2.2c0.8-1.1,1.7-2.1,2.5-3.2c0.8-1,1.6-2,2.4-3c0.8-1,1.5-1.9,2.3-2.9c0.8-1.1,1.7-2.1,2.5-3.2
		c0.7-0.9,1.4-1.8,2.1-2.7c0-0.1,0.1-0.1,0.2-0.1c0,0.1-0.1,0.1-0.1,0.2c-0.5,0.9-1,1.9-1.5,2.8c-0.7,1.2-1.3,2.4-2,3.5
		c-0.6,1.1-1.2,2.2-1.8,3.3c-0.7,1.2-1.4,2.5-2,3.7c-0.5,0.8-0.9,1.7-1.4,2.5c-0.5,0.8-0.9,1.6-1.4,2.5c-0.1,0.2-0.1,0.3-0.1,0.5
		c0,1.3,0,2.6-0.1,4C15.8,27.3,15.8,27.7,15.7,28.2C15.7,28.2,15.7,28.2,15.7,28.2z"/>
</g>
<g>
	<defs>
		<path id="SVGID_17_" d="M16.5,23c1,0.3,2.1,0.7,3.1,1c-1.1,1.5-2.1,3-3.2,4.4c0,0,0,0-0.1,0C16.4,26.7,16.5,24.9,16.5,23"/>
	</defs>
	<clipPath id="SVGID_18_">
		<use xlink:href="#SVGID_17_"  style="overflow:visible;"/>
	</clipPath>
	<g class="st9">
		<defs>
			<rect id="SVGID_19_" x="-620" y="-214" width="1280" height="850"/>
		</defs>
		<clipPath id="SVGID_20_">
			<use xlink:href="#SVGID_19_"  style="overflow:visible;"/>
		</clipPath>
		<rect x="11.4" y="18" class="st10" width="13.3" height="15.5"/>
	</g>
</g>
<g>
	<path class="st2" d="M16.5,23c1,0.3,2.1,0.7,3.1,1c-1.1,1.5-2.1,3-3.2,4.4c0,0,0,0-0.1,0C16.4,26.7,16.5,24.9,16.5,23z"/>
</g>
</svg>
