

<svg version="1.1" id="Layer_1" xmlns="http://www.w3.org/2000/svg" xmlns:xlink="http://www.w3.org/1999/xlink" x="0px" y="0px"
	 width="41px" height="10px" viewBox="0 0 41 10" style="enable-background:new 0 0 41 10;" xml:space="preserve">
<g>
	<defs>
		<polygon id="SVGID_1_" points="6.3,0 6.3,4 1.6,4 1.6,0 0,0 0,9.9 1.6,9.9 1.6,5.6 6.3,5.6 6.3,9.9 7.9,9.9 7.9,0 		"/>
	</defs>
	<clipPath id="SVGID_2_">
		<use xlink:href="#SVGID_1_"  style="overflow:visible;"/>
	</clipPath>
	<rect x="-5" y="-5" style="clip-path:url(#SVGID_2_);fill:#231F20;" width="17.9" height="19.9"/>
</g>
<g>
	<defs>
		<polygon id="SVGID_3_" points="12.6,0 12.6,9.9 18.7,9.9 18.7,8.3 14.2,8.3 14.2,5.6 17.9,5.6 17.9,4 14.2,4 14.2,1.5 18.7,1.5 
			18.7,0 		"/>
	</defs>
	<clipPath id="SVGID_4_">
		<use xlink:href="#SVGID_3_"  style="overflow:visible;"/>
	</clipPath>
	<rect x="7.6" y="-5" style="clip-path:url(#SVGID_4_);fill:#231F20;" width="16.1" height="19.9"/>
</g>
<g>
	<defs>
		<polygon id="SVGID_5_" points="34.5,0 34.5,9.9 40.6,9.9 40.6,8.3 36.1,8.3 36.1,5.6 39.8,5.6 39.8,4 36.1,4 36.1,1.5 40.6,1.5 
			40.6,0 		"/>
	</defs>
	<clipPath id="SVGID_6_">
		<use xlink:href="#SVGID_5_"  style="overflow:visible;"/>
	</clipPath>
	<rect x="29.5" y="-5" style="clip-path:url(#SVGID_6_);fill:#231F20;" width="16.1" height="19.9"/>
</g>
<g>
	<defs>
		<path id="SVGID_7_" d="M26.9,4L26.9,4l-2,0V1.5l2,0c0.7,0,1.2,0.6,1.2,1.2C28.2,3.5,27.6,4,26.9,4z M26,5.6l2.9,4.3h1.9l-3-4.4
			l0,0C29,5.1,29.8,4,29.8,2.8C29.8,1.2,28.6,0,27,0h-3.8v9.9h1.6l0-4.3H26z"/>
	</defs>
	<clipPath id="SVGID_8_">
		<use xlink:href="#SVGID_7_"  style="overflow:visible;"/>
	</clipPath>
	<rect x="18.3" y="-5" style="clip-path:url(#SVGID_8_);fill:#231F20;" width="17.6" height="19.9"/>
</g>
</svg>
