

<svg version="1.1" id="Layer_1" xmlns="http://www.w3.org/2000/svg" xmlns:xlink="http://www.w3.org/1999/xlink" x="0px" y="0px"
	 width="20px" height="20px" viewBox="0 0 20 20" style="enable-background:new 0 0 20 20;" xml:space="preserve">
<path d="M10-0.1c-2.7,0-3.1,0-4.1,0.1C4.8,0,4.1,0.2,3.5,0.5C2.8,0.8,2.3,1.1,1.7,1.7S0.8,2.8,0.5,3.5C0.3,4.1,0.1,4.9,0,5.9
	C0,7-0.1,7.3-0.1,10s0,3.1,0.1,4.1c0,1.1,0.2,1.8,0.5,2.4c0.3,0.7,0.6,1.2,1.2,1.8s1.1,0.9,1.8,1.2c0.6,0.2,1.4,0.4,2.4,0.5
	c1.1,0,1.4,0.1,4.1,0.1s3.1,0,4.1-0.1c1.1,0,1.8-0.2,2.4-0.5c0.7-0.3,1.2-0.6,1.8-1.2c0.6-0.6,0.9-1.1,1.2-1.8
	c0.2-0.6,0.4-1.4,0.5-2.4c0-1.1,0.1-1.4,0.1-4.1s0-3.1-0.1-4.1c0-1.1-0.2-1.8-0.5-2.4c-0.3-0.7-0.6-1.2-1.2-1.8s-1.1-0.9-1.8-1.2
	c-0.6-0.2-1.4-0.4-2.4-0.5S12.7-0.1,10-0.1z M10,1.7c2.7,0,3,0,4,0.1c1,0,1.5,0.2,1.9,0.3c0.5,0.2,0.8,0.4,1.1,0.7s0.6,0.7,0.7,1.1
	C17.8,4.3,18,4.8,18,5.8c0,1.1,0.1,1.4,0.1,4c0,2.7,0,3-0.1,4c0,1-0.2,1.5-0.3,1.9c-0.2,0.5-0.4,0.8-0.7,1.1s-0.7,0.6-1.1,0.7
	S15,17.8,14,17.8c-1.1,0-1.4,0.1-4,0.1c-2.7,0-3,0-4-0.1c-1,0-1.5-0.2-1.9-0.3c-0.5-0.2-0.8-0.4-1.1-0.7c-0.3-0.3-0.6-0.7-0.7-1.1
	C2.2,15.3,2,14.8,2,13.8c0-1.1-0.1-1.4-0.1-4c0-2.7,0-3,0.1-4c0-1,0.2-1.5,0.3-1.9C2.5,3.4,2.7,3.1,3,2.8s0.7-0.6,1.1-0.7
	C4.5,2,5,1.8,6,1.8C7,1.7,7.3,1.7,10,1.7z M10,4.8c-2.8,0-5.1,2.3-5.1,5.1S7.2,15,10,15s5.1-2.3,5.1-5.1S12.8,4.8,10,4.8z M10,13.2
	c-1.8,0-3.3-1.5-3.3-3.3S8.2,6.6,10,6.6s3.3,1.5,3.3,3.3S11.8,13.2,10,13.2z M16.5,4.6c0,0.7-0.5,1.2-1.2,1.2s-1.2-0.5-1.2-1.2
	s0.5-1.2,1.2-1.2S16.5,3.9,16.5,4.6z"/>
</svg>
